<?xml version="1.0" encoding="UTF-8" standalone="no"?>
<!-- Created with Inkscape (http://www.inkscape.org/) -->

<svg
   xmlns:dc="http://purl.org/dc/elements/1.1/"
   xmlns:cc="http://creativecommons.org/ns#"
   xmlns:rdf="http://www.w3.org/1999/02/22-rdf-syntax-ns#"
   xmlns:svg="http://www.w3.org/2000/svg"
   xmlns="http://www.w3.org/2000/svg"
   xmlns:sodipodi="http://sodipodi.sourceforge.net/DTD/sodipodi-0.dtd"
   xmlns:inkscape="http://www.inkscape.org/namespaces/inkscape"
   width="588.25983"
   height="141.76772"
   viewBox="0 0 588.2598 141.76772"
   id="svg4057"
   version="1.1"
   inkscape:version="0.91 r"
   sodipodi:docname="basics_AccountRelationships.svg">
  <defs
     id="defs4059" />
  <sodipodi:namedview
     id="base"
     pagecolor="#ffffff"
     bordercolor="#666666"
     borderopacity="1.0"
     inkscape:pageopacity="0.0"
     inkscape:pageshadow="2"
     inkscape:zoom="0.35"
     inkscape:cx="-130.8701"
     inkscape:cy="-349.11609"
     inkscape:document-units="px"
     inkscape:current-layer="layer1"
     showgrid="false"
     units="px"
     fit-margin-top="0"
     fit-margin-left="0"
     fit-margin-right="0"
     fit-margin-bottom="0"
     inkscape:window-width="1231"
     inkscape:window-height="776"
     inkscape:window-x="49"
     inkscape:window-y="24"
     inkscape:window-maximized="1" />
  <metadata
     id="metadata4062">
    <rdf:RDF>
      <cc:Work
         rdf:about="">
        <dc:format>image/svg+xml</dc:format>
        <dc:type
           rdf:resource="http://purl.org/dc/dcmitype/StillImage" />
        <dc:title></dc:title>
      </cc:Work>
    </rdf:RDF>
  </metadata>
  <g
     inkscape:label="Camada 1"
     inkscape:groupmode="layer"
     id="layer1"
     transform="translate(-77.298668,-41.478352)">
    <g
       transform="matrix(0.03543307,0,0,0.03543307,-4.1796914,-47.086606)"
       style="visibility:visible"
       visibility="visible"
       id="Slide_1_page1">
      <g
         id="Drawing_1">
        <path
           style="fill:#66ff66;stroke:none"
           inkscape:connector-curvature="0"
           d="m 2300,3800 2475,0 0,-700 826,1400 -826,1401 0,-701 -2475,0 0,-1400 z"
           id="path3927" />
        <path
           style="fill:none;stroke:#009933;stroke-linejoin:round"
           inkscape:connector-curvature="0"
           d="m 2300,3800 2475,0 0,-700 826,1400 -826,1401 0,-701 -2475,0 0,-1400 z"
           id="path3929" />
        <rect
           style="fill:none;stroke:none"
           x="2300"
           y="3100"
           width="3301"
           height="2801"
           id="rect3931" />
        <g
           style="font-style:normal;font-weight:700;font-size:635px;font-family:'Arimo embedded';fill:#3c3c3c;stroke:none"
           font-size="635"
           font-style="normal"
           font-weight="700"
           id="g3933">
          <text
             x="2618"
             y="4721"
             id="text3935">
            <tspan
               x="2618 3075 3427 3778 4129 4307 4519"
               id="tspan3937">Receita</tspan>
          </text>
        </g>
      </g>
      <g
         id="Drawing_2">
        <path
           style="fill:#ff6666;stroke:none"
           inkscape:connector-curvature="0"
           d="m 15352,3800 2661,0 0,-700 888,1400 -888,1401 0,-701 -2661,0 0,-1400 z"
           id="path3940" />
        <path
           style="fill:none;stroke:#cc0000;stroke-linejoin:round"
           inkscape:connector-curvature="0"
           d="m 15352,3800 2661,0 0,-700 888,1400 -888,1401 0,-701 -2661,0 0,-1400 z"
           id="path3942" />
        <rect
           style="fill:none;stroke:none"
           x="15352"
           y="3100"
           width="3549"
           height="2801"
           id="rect3944" />
        <g
           style="font-style:normal;font-weight:700;font-size:635px;font-family:'Arimo embedded';fill:#3c3c3c;stroke:none"
           font-size="635"
           font-style="normal"
           font-weight="700"
           id="g3946">
          <text
             x="15603"
             y="4721"
             id="text3948">
            <tspan
               x="15603 16060 16412 16763 17152 17504 17855"
               id="tspan3950">Despesa</tspan>
          </text>
        </g>
      </g>
      <g
         id="Drawing_3">
        <path
           style="fill:#cccccc;stroke:none"
           inkscape:connector-curvature="0"
           d="m 10450,6500 4250,0 c 276,0 500,-224 500,-500 l 0,-3000 c 0,-276 -224,-500 -500,-500 l -8500,0 c -276,0 -500,224 -500,500 l 0,3000 c 0,276 224,500 500,500 l 4250,0 z"
           id="path3953" />
        <path
           style="fill:none;stroke:#808080;stroke-linejoin:round"
           inkscape:connector-curvature="0"
           d="m 10450,6500 4250,0 c 276,0 500,-224 500,-500 l 0,-3000 c 0,-276 -224,-500 -500,-500 l -8500,0 c -276,0 -500,224 -500,500 l 0,3000 c 0,276 224,500 500,500 l 4250,0 z"
           id="path3955" />
        <g
           style="font-style:normal;font-weight:700;font-size:635px;font-family:'Arimo embedded';fill:#3c3c3c;stroke:none"
           font-size="635"
           font-style="normal"
           font-weight="700"
           id="g3957">
          <text
             x="8190"
             y="3201"
             id="text3959">
            <tspan
               x="8190 8647 8999 9388 9566 9778 10129 10307 10484 10874 11119 11509 11898 12144 12322"
               id="tspan3961">Capital próprio</tspan>
          </text>
        </g>
        <g
           style="font-style:italic;font-weight:400;font-size:635px;font-family:'Arimo embedded';fill:#3c3c3c;stroke:none"
           font-size="635"
           font-style="italic"
           font-weight="400"
           id="g3963">
          <text
             x="8141"
             y="3912"
             id="text3965">
            <tspan
               x="8141 8353 8776 8954 9094 9411 9762 9940 10152 10330 10753 11104 11422 11739 11879 12197 12548"
               id="tspan3967">(Ativo - Passivo)</tspan>
          </text>
        </g>
      </g>
      <g
         id="Drawing_4">
        <path
           style="fill:#66ff66;stroke:none"
           inkscape:connector-curvature="0"
           d="m 8150,6200 1950,0 c 166,0 300,-134 300,-300 l 0,-1200 c 0,-166 -134,-300 -300,-300 l -3900,0 c -166,0 -300,134 -300,300 l 0,1200 c 0,166 134,300 300,300 l 1950,0 z"
           id="path3970" />
        <path
           style="fill:none;stroke:#009933;stroke-linejoin:round"
           inkscape:connector-curvature="0"
           d="m 8150,6200 1950,0 c 166,0 300,-134 300,-300 l 0,-1200 c 0,-166 -134,-300 -300,-300 l -3900,0 c -166,0 -300,134 -300,300 l 0,1200 c 0,166 134,300 300,300 l 1950,0 z"
           id="path3972" />
        <g
           style="font-style:normal;font-weight:700;font-size:635px;font-family:'Arimo embedded';fill:#3c3c3c;stroke:none"
           font-size="635"
           font-style="normal"
           font-weight="700"
           id="g3974">
          <text
             x="7356"
             y="5165"
             id="text3976">
            <tspan
               x="7356 7813 8025 8203 8554"
               id="tspan3978">Ativo</tspan>
          </text>
        </g>
        <g
           style="font-style:italic;font-weight:400;font-size:635px;font-family:'Arimo embedded';fill:#3c3c3c;stroke:none"
           font-size="635"
           font-style="italic"
           font-weight="400"
           id="g3980">
          <text
             x="6226"
             y="5876"
             id="text3982">
            <tspan
               x="6226 6624 6975 7115 7466 7678 7856 8279 8631 8948 9088 9266 9405 9723"
               id="tspan3984">Valor Positivo</tspan>
          </text>
        </g>
      </g>
      <g
         id="Drawing_5">
        <path
           style="fill:#ff6666;stroke:none"
           inkscape:connector-curvature="0"
           d="m 12750,6200 1950,0 c 166,0 300,-134 300,-300 l 0,-1200 c 0,-166 -134,-300 -300,-300 l -3900,0 c -166,0 -300,134 -300,300 l 0,1200 c 0,166 134,300 300,300 l 1950,0 z"
           id="path3987" />
        <path
           style="fill:none;stroke:#cc0000;stroke-linejoin:round"
           inkscape:connector-curvature="0"
           d="m 12750,6200 1950,0 c 166,0 300,-134 300,-300 l 0,-1200 c 0,-166 -134,-300 -300,-300 l -3900,0 c -166,0 -300,134 -300,300 l 0,1200 c 0,166 134,300 300,300 l 1950,0 z"
           id="path3989" />
        <g
           style="font-style:italic;font-weight:700;font-size:635px;font-family:'Arimo embedded';fill:#3c3c3c;stroke:none"
           font-size="635"
           font-style="italic"
           font-weight="700"
           id="g3991">
          <text
             x="11552"
             y="5165"
             id="text3993">
            <tspan
               x="11552 11975 12327 12678 13029 13207 13559"
               id="tspan3995">Passivo</tspan>
          </text>
        </g>
        <g
           style="font-style:italic;font-weight:400;font-size:635px;font-family:'Arimo embedded';fill:#3c3c3c;stroke:none"
           font-size="635"
           font-style="italic"
           font-weight="400"
           id="g3997">
          <text
             x="10686"
             y="5876"
             id="text3999">
            <tspan
               x="10686 11084 11435 11575 11926 12138 12316 12773 13124 13476 13827 14005 14145 14462"
               id="tspan4001">Valor Negativo</tspan>
          </text>
        </g>
      </g>
    </g>
  </g>
</svg>
